<svg width="18" height="18" viewBox="0 0 18 18" fill="none" xmlns="http://www.w3.org/2000/svg">
<path d="M3.75 6.75C4.57843 6.75 5.25 6.07843 5.25 5.25C5.25 4.42157 4.57843 3.75 3.75 3.75C2.92157 3.75 2.25 4.42157 2.25 5.25C2.25 6.07843 2.92157 6.75 3.75 6.75Z" fill="#374151"/>
<path d="M7.125 13.125C7.125 10.2015 9.228 7.76325 12 7.2345V2.25C12 1.0095 10.9905 0 9.75 0H2.25C1.0095 0 0 1.0095 0 2.25V12.75C0 13.9905 1.0095 15 2.25 15H7.4295C7.2345 14.409 7.125 13.7805 7.125 13.125ZM3.555 9.135C3.06 8.64 2.19 8.64 1.695 9.135L1.5 9.32925V2.25C1.5 1.836 1.836 1.5 2.25 1.5H9.75C10.164 1.5 10.5 1.836 10.5 2.25V7.07925L9.93 6.50925C9.417 5.99625 8.58225 5.99625 8.07 6.50925L4.5 10.0793L3.555 9.135Z" fill="#374151"/>
<path d="M13.125 8.25C10.437 8.25 8.25 10.437 8.25 13.125C8.25 15.813 10.437 18 13.125 18C15.813 18 18 15.813 18 13.125C18 10.437 15.813 8.25 13.125 8.25ZM15.1875 13.875H13.875V15.1875C13.875 15.6023 13.5398 15.9375 13.125 15.9375C12.7102 15.9375 12.375 15.6023 12.375 15.1875V13.875H11.0625C10.6477 13.875 10.3125 13.5398 10.3125 13.125C10.3125 12.7102 10.6477 12.375 11.0625 12.375H12.375V11.0625C12.375 10.6477 12.7102 10.3125 13.125 10.3125C13.5398 10.3125 13.875 10.6477 13.875 11.0625V12.375H15.1875C15.6023 12.375 15.9375 12.7102 15.9375 13.125C15.9375 13.5398 15.6023 13.875 15.1875 13.875Z" fill="#374151"/>
</svg>
