<svg width="32" height="32" viewBox="0 0 32 32" fill="none" xmlns="http://www.w3.org/2000/svg">
<rect width="32" height="32" rx="10" fill="#3D4490"/>
<path d="M19.408 15.0359C21.5128 12.1235 19.4302 8 15.806 8H11.9753C11.1999 8 10.5691 8.63084 10.5691 9.40625V22.5938C10.5691 23.3692 11.2017 24 11.9794 24H11.9831C12.0051 23.9998 15.5086 23.9844 16.4751 23.9844C19.2078 23.9844 21.431 21.7612 21.431 19.0284C21.431 17.4494 20.6676 15.9645 19.408 15.0359ZM13.3816 10.8125H15.806C16.7037 10.8125 17.4341 11.5429 17.4341 12.4406C17.4341 13.3385 16.7037 14.0691 15.8045 14.0691C15.7948 14.0691 14.9031 14.0719 13.3816 14.0724V10.8125ZM16.475 21.1719C15.9467 21.1719 14.6058 21.1766 13.3816 21.1815V16.889L13.4156 16.8889C14.5644 16.8842 14.355 16.8849 16.475 16.885C17.6569 16.885 18.6185 17.8466 18.6185 19.0284C18.6185 20.2103 17.6569 21.1719 16.475 21.1719Z" fill="white"/>
</svg>
