<svg width="18" height="16" viewBox="0 0 18 16" fill="none" xmlns="http://www.w3.org/2000/svg">
<path d="M17.5561 0.631031C17.2743 0.34957 16.9 0.192106 16.5019 0.187606C16.4961 0.187535 16.4903 0.1875 16.4845 0.1875C16.0928 0.1875 15.7217 0.336176 15.4378 0.607441L6.99146 8.68378C7.89553 8.91423 8.66781 9.49438 9.17269 10.343C9.32653 10.6016 9.44898 10.8754 9.54018 11.1579L17.5801 2.74951C17.8508 2.46626 17.9999 2.09455 17.9999 1.70288C17.9999 1.29833 17.8424 0.917836 17.5561 0.631031Z" fill="#374151"/>
<path d="M6.20817 9.62914C6.16567 9.62734 6.12316 9.62646 6.0807 9.62646C5.36797 9.62646 4.66105 9.87432 4.08438 10.2892C3.38927 10.7893 3.1121 11.5076 2.6017 12.162C1.96172 12.9825 0.977168 13.3837 0 13.6573C0.569074 15.1613 2.68313 15.7771 4.06941 15.8103C4.11919 15.8115 4.16921 15.8121 4.21963 15.8121C5.78922 15.8121 7.63798 15.2287 8.39461 13.6843C9.22528 11.989 8.20139 9.71256 6.20817 9.62914Z" fill="#374151"/>
</svg>
