<svg width="16" height="16" viewBox="0 0 16 16" fill="none" xmlns="http://www.w3.org/2000/svg">
<path d="M15.3387 14.9351C15.3385 15.0847 15.2789 15.2282 15.173 15.3339C15.0671 15.4397 14.9236 15.4991 14.7739 15.4991H9.49244C9.41511 15.5047 9.33746 15.4944 9.26431 15.4687C9.19117 15.4429 9.12411 15.4024 9.06733 15.3497C9.01055 15.2969 8.96525 15.2329 8.93429 15.1619C8.90331 15.0908 8.88733 15.0141 8.88733 14.9366C8.88733 14.859 8.90331 14.7823 8.93429 14.7113C8.96525 14.6402 9.01055 14.5763 9.06733 14.5235C9.12411 14.4707 9.19117 14.4302 9.26431 14.4045C9.33746 14.3788 9.41511 14.3684 9.49244 14.3741H14.7739C14.9231 14.3739 15.0663 14.4328 15.1722 14.5379C15.278 14.6431 15.3379 14.7859 15.3387 14.9351ZM9.23069 11.5188L4.45694 6.75706C4.31635 6.61692 4.12594 6.53822 3.92744 6.53822C3.72893 6.53822 3.53852 6.61692 3.39794 6.75706L1.15994 8.98906C0.764135 9.38623 0.5303 9.91647 0.503959 10.4766C0.477618 11.0367 0.660656 11.5865 1.01744 12.0191C1.06244 12.0716 1.10744 12.1241 1.15994 12.1766L1.80494 12.8216L3.14744 14.1641L3.79994 14.8166C3.84494 14.8616 3.88994 14.9066 3.94244 14.9516C4.37679 15.313 4.9303 15.4994 5.4948 15.4744C6.05929 15.4495 6.59418 15.2149 6.99494 14.8166L9.23144 12.5801C9.30112 12.5104 9.35638 12.4276 9.39406 12.3365C9.43174 12.2455 9.4511 12.1478 9.45103 12.0493C9.45096 11.9507 9.43146 11.8531 9.39365 11.7621C9.35585 11.6711 9.30047 11.5884 9.23069 11.5188ZM10.0249 10.7253C10.1655 10.8655 10.3559 10.9442 10.5544 10.9442C10.7529 10.9442 10.9434 10.8655 11.0839 10.7253L14.8339 6.97531C15.2554 6.55197 15.492 5.97892 15.492 5.38156C15.492 4.7842 15.2554 4.21116 14.8339 3.78781L12.1999 1.15906C11.7751 0.737523 11.2009 0.500977 10.6024 0.500977C10.004 0.500977 9.42975 0.737523 9.00494 1.15906L5.25494 4.90306C5.1852 4.97272 5.12989 5.05544 5.09214 5.14648C5.0544 5.23753 5.03497 5.33513 5.03497 5.43369C5.03497 5.53225 5.0544 5.62985 5.09214 5.72089C5.12989 5.81194 5.1852 5.89466 5.25494 5.96431L10.0249 10.7253Z" fill="#374151"/>
</svg>
