<svg width="18" height="18" viewBox="0 0 18 18" fill="none" xmlns="http://www.w3.org/2000/svg">
<path d="M16.1933 12.7598V5.2354C17.2394 4.8659 17.9928 3.87737 17.9928 2.70168C17.9928 1.20928 16.7836 0 15.2912 0C14.1155 0 13.1269 0.753399 12.7574 1.79952H5.23305C4.86355 0.753399 3.87021 0 2.69932 0C1.20692 0 0.00244141 1.20928 0.00244141 2.70168C0.00244141 3.87737 0.755841 4.8659 1.80196 5.2354V12.7646C0.755841 13.1341 0.00244141 14.1226 0.00244141 15.2983C0.00244141 16.7907 1.21172 18 2.69932 18C3.87501 18 4.86355 17.2466 5.23305 16.2005H12.7622C13.1317 17.2466 14.1251 18 15.296 18C16.7884 18 17.9976 16.7907 17.9976 15.2983C17.9928 14.1226 17.2394 13.1341 16.1933 12.7598ZM14.3986 12.7646C13.6308 13.0333 13.031 13.6332 12.7574 14.3962H5.23305C4.95952 13.6332 4.35968 13.0333 3.59668 12.7598V5.2354C4.35968 4.96188 4.95952 4.36684 5.23305 3.59904H12.7622C13.0358 4.36204 13.6308 4.96188 14.3986 5.2354V12.7646Z" fill="#374151"/>
</svg>
