<svg width="32" height="32" viewBox="0 0 32 32" fill="none" xmlns="http://www.w3.org/2000/svg">
<rect width="32" height="32" rx="10" fill="#D1D5DB"/>
<g clip-path="url(#clip0_323_9946)">
<path d="M22.6667 8H14.6667C14.313 8 13.9739 8.14048 13.7239 8.39052C13.4738 8.64057 13.3333 8.97971 13.3333 9.33333C13.3333 9.68696 13.4738 10.0261 13.7239 10.2761C13.9739 10.5262 14.313 10.6667 14.6667 10.6667H16.6933L12.4267 21.3333H9.33333C8.97971 21.3333 8.64057 21.4738 8.39052 21.7239C8.14048 21.9739 8 22.313 8 22.6667C8 23.0203 8.14048 23.3594 8.39052 23.6095C8.64057 23.8595 8.97971 24 9.33333 24H17.3333C17.687 24 18.0261 23.8595 18.2761 23.6095C18.5262 23.3594 18.6667 23.0203 18.6667 22.6667C18.6667 22.313 18.5262 21.9739 18.2761 21.7239C18.0261 21.4738 17.687 21.3333 17.3333 21.3333H15.3067L19.5733 10.6667H22.6667C23.0203 10.6667 23.3594 10.5262 23.6095 10.2761C23.8595 10.0261 24 9.68696 24 9.33333C24 8.97971 23.8595 8.64057 23.6095 8.39052C23.3594 8.14048 23.0203 8 22.6667 8Z" fill="white"/>
</g>
<defs>
<clipPath id="clip0_323_9946">
<rect width="16" height="16" fill="white" transform="translate(8 8)"/>
</clipPath>
</defs>
</svg>
