<svg width="18" height="16" viewBox="0 0 18 16" fill="none" xmlns="http://www.w3.org/2000/svg">
<path d="M11.0891 0.353883C11.2466 0.288633 11.4283 0.324633 11.5487 0.44557L17.1731 6.06945C17.2524 6.14876 17.2969 6.2562 17.2969 6.36757C17.2969 6.47895 17.2524 6.58695 17.1731 6.6657L11.5487 12.2901C11.4278 12.4105 11.2466 12.4476 11.0891 12.3818C10.9316 12.3166 10.8287 12.1624 10.8287 11.992V9.39382H9.64125C5.96869 9.39382 2.67694 11.8536 1.63744 15.3754C1.584 15.556 1.41806 15.6781 1.23244 15.6781C1.22231 15.6781 1.21275 15.6781 1.20206 15.6769C1.00463 15.6629 0.843187 15.5133 0.815062 15.3169C0.376312 12.3076 1.26562 9.2622 3.25462 6.96157C5.16937 4.74701 7.91381 3.44201 10.8292 3.34695V0.743695C10.8287 0.573258 10.9316 0.419133 11.0891 0.353883Z" fill="#374151"/>
</svg>
