<svg width="18" height="18" viewBox="0 0 18 18" fill="none" xmlns="http://www.w3.org/2000/svg">
<path d="M17.3676 4.0082L17.3672 4.00783L13.9922 0.632826L13.9918 0.632449C13.927 0.568152 13.8501 0.517282 13.7656 0.482758L13.7159 0.604263C13.6474 0.57627 13.574 0.562081 13.5 0.562509V0.431259H13.4996H2.25C1.76764 0.431259 1.30503 0.622877 0.96395 0.963959C0.622868 1.30504 0.43125 1.76765 0.43125 2.25001V15.75C0.43125 16.2324 0.622868 16.695 0.96395 17.0361C1.30503 17.3771 1.76764 17.5688 2.25 17.5688H15.75C16.2324 17.5688 16.695 17.3771 17.0361 17.0361C17.3771 16.695 17.5688 16.2324 17.5688 15.75L17.5687 4.50077L17.4375 4.50001H17.5688V4.50042C17.5692 4.40924 17.5517 4.31885 17.5173 4.23443C17.4827 4.14991 17.4319 4.07303 17.3676 4.0082ZM11.1187 1.81876V4.93126H6.88125V1.81876H11.1187ZM4.63125 16.1813V12.375C4.63125 12.2606 4.67668 12.1509 4.75756 12.0701C4.83844 11.9892 4.94813 11.9438 5.0625 11.9438H12.9375C13.0519 11.9438 13.1616 11.9892 13.2424 12.0701C13.3233 12.1509 13.3687 12.2606 13.3687 12.375V16.1813H4.63125ZM16.1812 15.75C16.1812 15.8644 16.1358 15.9741 16.0549 16.0549C15.9741 16.1358 15.8644 16.1813 15.75 16.1813H14.7563V12.375C14.7563 11.8926 14.5646 11.43 14.2236 11.089C13.8825 10.7479 13.4199 10.5563 12.9375 10.5563H5.0625C4.58014 10.5563 4.11753 10.7479 3.77645 11.089C3.43537 11.43 3.24375 11.8926 3.24375 12.375V16.1813H2.25C2.13562 16.1813 2.02593 16.1358 1.94506 16.0549C1.86419 15.9741 1.81875 15.8644 1.81875 15.75V2.25001C1.81875 2.13563 1.86419 2.02594 1.94506 1.94507C2.02594 1.86419 2.13563 1.81876 2.25 1.81876H5.49375V5.06251C5.49375 5.39569 5.6261 5.71522 5.8617 5.95081C6.09729 6.18641 6.41682 6.31876 6.75 6.31876H11.25C11.5832 6.31876 11.9027 6.18641 12.1383 5.95081C12.3739 5.71522 12.5063 5.39569 12.5063 5.06251V1.81876H13.215L16.1812 4.785V15.75Z" fill="white" stroke="white" stroke-width="0.2625"/>
</svg>
