<svg width="12" height="18" viewBox="0 0 12 18" fill="none" xmlns="http://www.w3.org/2000/svg">
<path d="M11.0957 10.2816L0.932158 0.121631C0.559872 -0.173971 0 0.108163 0 0.550262V14.4351C0 14.7458 0.252176 14.998 0.562896 14.998C0.709254 14.998 0.849566 14.9416 0.92996 14.8605L3.74581 12.4071L6.04247 17.7726C6.0815 17.8641 6.15502 17.9363 6.24737 17.9738C6.29245 17.991 6.33972 18 6.387 18C6.43729 18 6.48759 17.9894 6.53487 17.9692L8.9515 16.9335C9.14211 16.8525 9.23075 16.6318 9.14898 16.4412L6.92584 11.2453H10.695C11.0057 11.2453 11.2579 10.9931 11.2579 10.6824C11.2579 10.5915 11.2347 10.4549 11.0957 10.2816V10.2816Z" fill="white"/>
</svg>
