<svg width="18" height="18" viewBox="0 0 18 18" fill="none" xmlns="http://www.w3.org/2000/svg">
<path d="M15.9374 6H8.06241C6.92464 6 6 6.92464 6 8.06241V15.9374C6 17.0752 6.92464 18 8.06241 18H15.9374C17.0752 18 18 17.0752 18 15.9374V8.06241C18 6.92464 17.0752 6 15.9374 6Z" fill="#374151"/>
<path d="M4.87505 8.06245C4.87505 6.30519 6.3045 4.87505 8.06245 4.87505H13.2285C12.4231 2.04071 9.84224 0 6.75 0C3.02769 0 0 3.02852 0 6.75C0 9.84155 2.04071 12.4222 4.87505 13.2278V8.06245Z" fill="#374151"/>
</svg>
