<svg width="16" height="18" viewBox="0 0 16 18" fill="none" xmlns="http://www.w3.org/2000/svg">
<path d="M1.14453 16.418V17.4727C1.14453 17.7637 1.38078 18 1.67188 18H14.3281C14.6192 18 14.8555 17.7637 14.8555 17.4727V16.418H1.14453Z" fill="#374151"/>
<path d="M10.6873 6.22195C11.498 5.36133 11.8418 4.19168 11.6302 3.01254C11.3243 1.30605 9.80275 0 7.99993 0C6.17638 0 4.67134 1.32785 4.3697 3.01254C4.15806 4.19168 4.50189 5.36133 5.31259 6.22195C5.86138 6.80484 6.06458 7.55051 6.13841 8.07328C6.29345 9.17262 5.96017 10.0034 5.54216 10.6172H10.4584C10.0401 10.0034 9.70677 9.17191 9.86146 8.07328C9.93529 7.55051 10.1385 6.80484 10.6873 6.22195Z" fill="#374151"/>
<path d="M15.3828 15.3633H0.617188C0.325953 15.3633 0.0898438 15.1272 0.0898438 14.8359V14.3086C0.0898438 12.8547 1.27268 11.6719 2.72656 11.6719H13.2734C14.7273 11.6719 15.9102 12.8547 15.9102 14.3086V14.8359C15.9102 15.1272 15.674 15.3633 15.3828 15.3633Z" fill="#374151"/>
</svg>
