<svg width="18" height="18" viewBox="0 0 18 18" fill="none" xmlns="http://www.w3.org/2000/svg">
<path d="M0.527344 4.01607C0.818578 4.01607 1.05469 3.77996 1.05469 3.48873V1.05469H3.48873C3.77996 1.05469 4.01607 0.818578 4.01607 0.527344C4.01607 0.236109 3.77996 0 3.48873 0H0.527344C0.236109 0 0 0.236109 0 0.527344V3.48873C0 3.78 0.236109 4.01607 0.527344 4.01607Z" fill="#374151"/>
<path d="M17.4726 0H14.5112C14.22 0 13.9839 0.236109 13.9839 0.527344C13.9839 0.818578 14.22 1.05469 14.5112 1.05469H16.9453V3.48873C16.9453 3.77996 17.1814 4.01607 17.4726 4.01607C17.7639 4.01607 18 3.77996 18 3.48873V0.527344C18 0.236109 17.7639 0 17.4726 0Z" fill="#374151"/>
<path d="M17.4726 13.9839C17.1814 13.9839 16.9453 14.22 16.9453 14.5112V16.9453H14.5112C14.22 16.9453 13.9839 17.1814 13.9839 17.4726C13.9839 17.7639 14.22 18 14.5112 18H17.4726C17.7639 18 18 17.7639 18 17.4726V14.5112C18 14.22 17.7639 13.9839 17.4726 13.9839Z" fill="#374151"/>
<path d="M3.48873 16.9453H1.05469V14.5112C1.05469 14.22 0.818578 13.9839 0.527344 13.9839C0.236109 13.9839 0 14.22 0 14.5112V17.4726C0 17.7639 0.236109 18 0.527344 18H3.48873C3.77996 18 4.01607 17.7639 4.01607 17.4726C4.01607 17.1814 3.78 16.9453 3.48873 16.9453Z" fill="#374151"/>
<path d="M14.7537 6.72816V3.39781C14.7537 3.23258 14.6197 3.09863 14.4542 3.09863H9.00001H3.54587C3.38028 3.09863 3.24634 3.23258 3.24634 3.39781V6.72816C3.24634 6.89375 3.38028 7.0277 3.54587 7.0277H5.13634C5.30157 7.0277 5.43552 6.89375 5.43552 6.72816V5.58734C5.43552 5.42176 5.56981 5.28781 5.73505 5.28781H7.60571C7.7713 5.28781 7.90524 5.42176 7.90524 5.58734V13.8188C7.90524 13.9844 7.7713 14.1184 7.60571 14.1184H6.78763C6.62204 14.1184 6.4881 14.2523 6.4881 14.4179V16.0084C6.4881 16.1736 6.62204 16.3075 6.78763 16.3075H9.00001H11.2124C11.378 16.3075 11.5119 16.1736 11.5119 16.0084V14.4179C11.5119 14.2523 11.378 14.1184 11.2124 14.1184H10.3943C10.2287 14.1184 10.0948 13.9844 10.0948 13.8188V5.58734C10.0948 5.42176 10.2287 5.28781 10.3943 5.28781H12.265C12.4302 5.28781 12.5645 5.42176 12.5645 5.58734V6.72816C12.5645 6.89375 12.6984 7.0277 12.8637 7.0277H14.4542C14.6197 7.0277 14.7537 6.89375 14.7537 6.72816Z" fill="#374151"/>
</svg>
