<svg width="18" height="16" viewBox="0 0 18 16" fill="none" xmlns="http://www.w3.org/2000/svg">
<path d="M6.91088 0.353883C6.75338 0.288633 6.57169 0.324633 6.45131 0.44557L0.826875 6.06945C0.747563 6.14876 0.703125 6.2562 0.703125 6.36757C0.703125 6.47895 0.747563 6.58695 0.826875 6.6657L6.45131 12.2901C6.57225 12.4105 6.75338 12.4476 6.91088 12.3818C7.06838 12.3166 7.17131 12.1624 7.17131 11.992V9.39382H8.35875C12.0313 9.39382 15.3231 11.8536 16.3626 15.3754C16.416 15.556 16.5819 15.6781 16.7676 15.6781C16.7777 15.6781 16.7873 15.6781 16.7979 15.6769C16.9954 15.6629 17.1568 15.5133 17.1849 15.3169C17.6237 12.3076 16.7344 9.2622 14.7454 6.96157C12.8306 4.74701 10.0862 3.44201 7.17075 3.34695V0.743695C7.17131 0.573258 7.06838 0.419133 6.91088 0.353883Z" fill="#D1D5DB"/>
</svg>
